<?xml version="1.0" encoding="utf-8"?>
<!-- Generator: Adobe Illustrator 16.0.0, SVG Export Plug-In . SVG Version: 6.00 Build 0)  -->
<!DOCTYPE svg PUBLIC "-//W3C//DTD SVG 1.1//EN" "http://www.w3.org/Graphics/SVG/1.1/DTD/svg11.dtd">
<svg version="1.1" id="Layer_1" xmlns="http://www.w3.org/2000/svg" xmlns:xlink="http://www.w3.org/1999/xlink" x="0px" y="0px"
	 width="86px" height="29px" viewBox="0 0 86 29" style="enable-background:new 0 0 86 29;" xml:space="preserve">
<style type="text/css">
<![CDATA[
	.st0{fill:#ECFFFB;}
	.st1{fill:#77FFE4;}
]]>
</style>
<g>
	<path class="st1" d="M36.4,24.6c-1.8-1-2.5-3-2.7-4.6c-0.3-2.4-0.2-3.9-0.2-5.5c0-1.9,0.4-3.3,1.5-4.1c1.6-1.1,3.7-1,3.7-1
		s0-5.3,0-6.7c0-1.2-1.7-1.3-2-1.3c-2-0.2-6-0.2-6-0.2s-4,0-6,0.2c-0.3,0-2,0.1-2,1.3c0,1.3,0,6.7,0,6.7s2.1-0.1,3.7,1
		c1.2,0.8,1.6,2.2,1.5,4.1c0,1.6,0,3.1-0.2,5.5c-0.2,1.6-0.9,3.6-2.7,4.6c-3.1,1.8-7.9,1.7-7.9,1.7v2.2h13.6h13.6v-2.2
		C44.3,26.3,39.5,26.4,36.4,24.6z"/>
	<g>
		<path class="st0" d="M40.3,14.3h2.2c0.8,0,1.3,0.2,1.7,0.6c0.4,0.4,0.6,0.9,0.6,1.6c0,0.5-0.1,0.9-0.4,1.3
			c-0.3,0.4-0.6,0.6-1.1,0.7c0.3,0.1,0.5,0.4,0.7,0.9l0.6,1.5c0.2,0.4,0.3,0.7,0.5,0.8C45,21.9,44.8,22,44.6,22
			c-0.1,0-0.3,0-0.3-0.1c-0.1-0.1-0.2-0.2-0.2-0.4l-0.7-1.7c-0.1-0.3-0.3-0.6-0.5-0.8c-0.2-0.2-0.4-0.3-0.8-0.3H41v3.2
			c-0.1,0-0.2,0-0.4,0c-0.2,0-0.3,0-0.4,0L40.3,14.3L40.3,14.3z M41,14.9v3c0.6,0,1.1,0,1.5,0c0.6,0,1-0.1,1.2-0.4s0.4-0.6,0.4-1.1
			s-0.1-0.8-0.4-1.1c-0.2-0.3-0.7-0.4-1.3-0.4S41.3,14.9,41,14.9z"/>
		<path class="st0" d="M50.4,21.5c-0.1,0.2-0.2,0.3-0.4,0.4c-0.4-0.1-0.6-0.4-0.6-0.8c-0.6,0.6-1.1,0.8-1.8,0.8
			c-0.5,0-0.9-0.2-1.2-0.5c-0.3-0.3-0.4-0.7-0.4-1.1c0-0.6,0.2-1,0.6-1.3c0.4-0.3,0.9-0.4,1.5-0.4c0.4,0,0.8,0,1.2,0.1v-0.6
			c0-0.8-0.3-1.2-1-1.2c-0.5,0-1.1,0.2-1.8,0.5c-0.1-0.1-0.1-0.1-0.2-0.3c-0.1-0.2-0.1-0.2-0.1-0.3c0.8-0.3,1.5-0.5,2.1-0.5
			c1.1,0,1.7,0.6,1.7,1.8v2.3C50.1,21,50.2,21.3,50.4,21.5z M46.9,20.3c0,0.3,0.1,0.6,0.2,0.8c0.2,0.2,0.4,0.3,0.7,0.3
			s0.6-0.1,0.9-0.2c0.3-0.2,0.6-0.4,0.8-0.7v-1.1c-0.4-0.1-0.8-0.1-1.2-0.1c-0.4,0-0.7,0.1-1,0.3C47,19.7,46.9,19.9,46.9,20.3z"/>
		<path class="st0" d="M52.9,17.2v4.7c-0.1,0-0.2,0-0.4,0s-0.3,0-0.4,0v-4.3c0-0.2,0-0.3-0.1-0.4c0-0.1-0.1-0.2-0.3-0.2h-0.1
			c0-0.1,0-0.2,0-0.3c0-0.1,0-0.2,0-0.3c0.2,0,0.4,0,0.5,0h0.1c0.2,0,0.4,0.1,0.5,0.2C52.8,16.7,52.9,16.9,52.9,17.2z M51.9,15.4
			c-0.1-0.1-0.1-0.2-0.1-0.4s0-0.3,0.1-0.4c0.1-0.1,0.3-0.1,0.5-0.1c0.2,0,0.4,0,0.5,0.1C53,14.7,53,14.8,53,15s0,0.3-0.1,0.4
			c-0.1,0.1-0.2,0.1-0.4,0.1C52.1,15.5,52,15.4,51.9,15.4z"/>
		<path class="st0" d="M56,21.2h0.5c0,0.1,0.1,0.2,0.1,0.3s0,0.2,0,0.2c-0.3,0-0.5,0.1-0.8,0.1s-0.5-0.1-0.6-0.2
			C55,21.4,55,21.2,55,21v-7.2l0.1-0.1h0.3c0.2,0,0.3,0,0.3,0.1c0.1,0.1,0.1,0.2,0.1,0.4v6.5C55.6,21.1,55.7,21.2,56,21.2z"/>
	</g>
	<g>
		<path class="st0" d="M1.9,14.2c0,0.3,0.2,0.6,0.5,0.9c0.2,0.2,0.3,0.3,0.5,0.4c0.2,0.1,0.4,0.2,0.7,0.2c1.1,0,1.8-0.3,2.3-1
			c0.3-0.5,0.4-1,0.4-1.6c0-0.3-0.1-0.5-0.2-0.8C6,12,5.8,11.8,5.6,11.6c-0.5-0.5-1.2-0.8-2-0.8H3.4v-0.7c0,0,0,0,0.1,0
			c0,0,0.1,0,0.1-0.1c0,0,0.1,0,0.2-0.1c0.4-0.2,0.9-0.4,1.4-0.7c0.6-0.4,1-0.8,1.3-1.4C6.6,7.6,6.7,7.3,6.7,7c0-0.4-0.1-0.7-0.3-1
			C6.1,5.7,5.7,5.5,5.2,5.5S4.3,5.6,3.9,5.9C3.5,6.2,3.2,6.5,3,7L2.3,6.8C2.4,6.6,2.5,6.3,2.8,6C3,5.7,3.3,5.4,3.7,5.1
			C4.4,4.5,5.2,4.2,6,4.2c0.3,0,0.6,0.1,1,0.2C7.6,4.6,8.1,5,8.4,5.5c0.1,0.3,0.2,0.6,0.2,0.9c0,0.8-0.3,1.5-0.9,2.1
			c-0.5,0.6-1.2,1-2,1.2v0.1c0.8,0.1,1.4,0.4,1.8,1c0.4,0.5,0.6,1,0.6,1.7c0,0.5-0.1,1.1-0.4,1.6c-0.6,1.1-1.5,1.8-2.8,2.2
			c-0.7,0.2-1.4,0.3-2,0.3c-0.4,0-0.7,0-1.1-0.1c-0.6-0.2-1-0.4-1.2-0.7c-0.1-0.2-0.2-0.3-0.2-0.5c0-0.3,0.1-0.5,0.4-0.7
			C1.1,14.4,1.4,14.3,1.9,14.2z"/>
		<path class="st0" d="M10.9,8.7l0.6-3.8l-0.8-0.1l0.1-0.5l1.6-0.1l0.1,0.1l-0.3,1.1h0.1C12.6,4.5,13,4,13.4,4c0.1,0,0.2,0,0.3,0.1
			c0.1,0.1,0.1,0.2,0.1,0.3c0,0.2,0,0.3-0.1,0.5c-0.1,0.2-0.1,0.3-0.2,0.3s-0.1-0.1-0.2-0.1c-0.1,0-0.2,0-0.3,0s-0.3,0.1-0.4,0.2
			c-0.2,0.2-0.3,0.3-0.4,0.5l-0.5,2.8l1,0.2l-0.1,0.4H10l0.1-0.4L10.9,8.7z"/>
		<path class="st0" d="M19,8.8l-0.1,0.4c-0.3,0.1-0.6,0.2-0.8,0.2c-0.2,0-0.4,0-0.5-0.1c-0.1-0.1-0.2-0.2-0.2-0.4c0-0.1,0-0.2,0-0.3
			h-0.1c-0.2,0.3-0.4,0.5-0.6,0.7c-0.2,0.2-0.5,0.3-0.8,0.3c-0.8,0-1.2-0.6-1.2-1.8c0-0.4,0.1-0.8,0.2-1.2s0.3-0.7,0.5-1
			c0.4-0.6,0.9-1,1.5-1.3C17.1,4.1,17.4,4,17.7,4c0.2,0,0.3,0,0.4,0l0,0l0.2-1.7l-0.8-0.2l0.1-0.4l1.6-0.1l0.1,0.1L18.5,7
			c-0.1,0.7-0.2,1.2-0.2,1.3c0,0.1,0,0.2,0.1,0.3s0.1,0.1,0.2,0.1L19,8.8z M17.9,4.9c-0.2-0.1-0.4-0.2-0.7-0.2
			c-0.3,0-0.6,0.1-0.8,0.4c-0.2,0.3-0.4,0.6-0.5,1s-0.2,0.8-0.2,1.2c0,0.5,0.1,0.8,0.2,1c0.1,0.2,0.3,0.3,0.6,0.3
			c0.2,0,0.4,0,0.5-0.1s0.3-0.2,0.5-0.4L17.9,4.9z"/>
	</g>
	<g>
		<path class="st0" d="M59.6,27.6c-0.3-0.2-0.3-0.5-0.1-1l0.5-0.9c0.2-0.4,0.6-0.4,1.1-0.1c0.4,0.3,0.9,0.5,1.4,0.7s1.1,0.3,1.8,0.3
			c0.9,0,1.5-0.2,1.9-0.7c0.4-0.5,0.6-1,0.6-1.6c0-0.6-0.2-1.2-0.7-1.7s-1.1-0.7-2-0.7h-0.8c-0.4,0-0.7-0.2-0.7-0.5v-1.1
			c0-0.4,0.2-0.6,0.7-0.6H64c0.6,0,1.2-0.2,1.7-0.6c0.5-0.4,0.7-0.9,0.7-1.5c0-0.5-0.2-0.8-0.5-1.1c-0.3-0.3-0.8-0.5-1.6-0.5
			c-0.7,0-1.3,0.1-1.8,0.3s-0.9,0.4-1.2,0.7c-0.4,0.4-0.8,0.4-1.1-0.1L59.6,16c-0.2-0.3-0.2-0.7,0.2-1c0.5-0.5,1.1-0.8,1.9-1
			s1.5-0.3,2.3-0.3c1.8,0,3.1,0.4,3.9,1.1c0.9,0.7,1.3,1.6,1.3,2.6c0,0.8-0.3,1.4-0.9,2.1c-0.6,0.6-1.2,1-1.9,1.3l0,0
			c0.8,0.2,1.5,0.6,2.2,1.3c0.7,0.7,1,1.4,1,2.4c0,1.5-0.5,2.6-1.4,3.4c-0.9,0.8-2.1,1.1-4,1.1c-0.8,0-1.7-0.1-2.5-0.4
			C60.8,28.4,60.1,28,59.6,27.6z"/>
		<path class="st0" d="M73.4,28.7c-0.5,0-0.8-0.3-0.8-0.8V14.1c0-0.5,0.3-0.8,0.8-0.8h3.8c3.3,0,5.5,0.7,6.7,2
			c1.2,1.3,1.7,3.2,1.7,5.7s-0.6,4.4-1.7,5.7c-1.2,1.3-3.4,2-6.7,2H73.4z M75.7,26h1.2c2.2,0,3.7-0.4,4.3-1.2c0.7-0.8,1-2.1,1-3.8
			s-0.3-3-1-3.8S79.1,16,76.9,16h-1.2V26z"/>
	</g>
</g>
</svg>
