<?xml version="1.0" encoding="utf-8"?>
<!-- Generator: Adobe Illustrator 16.0.0, SVG Export Plug-In . SVG Version: 6.00 Build 0)  -->
<!DOCTYPE svg PUBLIC "-//W3C//DTD SVG 1.1//EN" "http://www.w3.org/Graphics/SVG/1.1/DTD/svg11.dtd">
<svg version="1.1" id="Layer_1" xmlns="http://www.w3.org/2000/svg" xmlns:xlink="http://www.w3.org/1999/xlink" x="0px" y="0px"
	 width="32px" height="32px" viewBox="0 0 32 32" style="enable-background:new 0 0 32 32;" xml:space="preserve">
<style type="text/css">
<![CDATA[
	.st0{fill:#ECFFFB;}
]]>
</style>
<path class="st0" d="M12,29c0,1.7-1.3,3-3,3s-3-1.3-3-3s1.3-3,3-3S12,27.3,12,29z"/>
<path class="st0" d="M32,29c0,1.7-1.3,3-3,3s-3-1.3-3-3s1.3-3,3-3S32,27.3,32,29z"/>
<path class="st0" d="M32,16V4H8c0-1.1-0.9-2-2-2H0v2h4l1.5,12.9C4.6,17.6,4,18.7,4,20c0,2.2,1.8,4,4,4h24v-2H8c-1.1,0-2-0.9-2-2
	c0,0,0,0,0,0L32,16z"/>
</svg>
