<?xml version="1.0" encoding="utf-8"?>
<!-- Generator: Adobe Illustrator 16.0.0, SVG Export Plug-In . SVG Version: 6.00 Build 0)  -->
<!DOCTYPE svg PUBLIC "-//W3C//DTD SVG 1.1//EN" "http://www.w3.org/Graphics/SVG/1.1/DTD/svg11.dtd">
<svg version="1.1" id="Layer_1" xmlns="http://www.w3.org/2000/svg" xmlns:xlink="http://www.w3.org/1999/xlink" x="0px" y="0px"
	 width="32px" height="32px" viewBox="0 0 32 32" enable-background="new 0 0 32 32" xml:space="preserve">
<path fill="#5FCCB7" d="M12,29c0,1.657-1.343,3-3,3s-3-1.343-3-3s1.343-3,3-3S12,27.343,12,29z"/>
<path fill="#5FCCB7" d="M32,29c0,1.657-1.343,3-3,3s-3-1.343-3-3s1.343-3,3-3S32,27.343,32,29z"/>
<path fill="#5FCCB7" d="M32,16V4H8c0-1.105-0.895-2-2-2H0v2h4l1.502,12.877C4.587,17.609,4,18.736,4,20c0,2.209,1.791,4,4,4h24v-2H8
	c-1.105,0-2-0.895-2-2c0-0.007,0-0.014,0-0.02L32,16z"/>
</svg>
