<?xml version="1.0" encoding="utf-8"?>
<!-- Generator: Adobe Illustrator 16.0.0, SVG Export Plug-In . SVG Version: 6.00 Build 0)  -->
<!DOCTYPE svg PUBLIC "-//W3C//DTD SVG 1.1//EN" "http://www.w3.org/Graphics/SVG/1.1/DTD/svg11.dtd">
<svg version="1.1" id="Layer_1" xmlns="http://www.w3.org/2000/svg" xmlns:xlink="http://www.w3.org/1999/xlink" x="0px" y="0px"
	 width="32px" height="32px" viewBox="0 0 32 32" style="enable-background:new 0 0 32 32;" xml:space="preserve">
<style type="text/css">
<![CDATA[
	.st0{fill:#ECFFFB;}
]]>
</style>
<path class="st0" d="M16,0C7.2,0,0,7.2,0,16c0,8.8,7.2,16,16,16c1.1,0,2.1-0.1,3.2-0.3c-0.4-0.2-0.5-1.7,0-2.5
	c0.5-0.9,1.9-3.3,0.5-4.1c-1.4-0.8-1-1.2-1.9-2.1c-0.9-0.9-0.5-1.1-0.6-1.3c-0.2-0.8,0.8-2,0.9-2.2c0-0.1,0-0.6,0-0.7
	c0-0.1-0.6-0.5-0.8-0.5c-0.2,0-0.2,0.2-0.5,0.3c-0.2,0-1.2-0.6-1.4-0.7c-0.2-0.2-0.3-0.5-0.6-0.8c-0.3-0.3-0.3-0.1-0.8-0.2
	c-0.4-0.2-1.8-0.7-2.9-1.1c-1.1-0.4-1.2-1.1-1.2-1.5c0-0.4-0.7-1.1-1-1.5c-0.3-0.5-0.4-1.1-0.5-0.9c-0.1,0.1,0.6,1.8,0.5,1.8
	c-0.1,0-0.3-0.5-0.7-0.9c-0.3-0.4,0.3-0.2-0.7-2.2c-1-2,0.3-3,0.4-4c0.1-1,0.8,0.4,0.4-0.3c-0.4-0.7,0-2-0.3-2.5
	C7.9,3.2,6.1,4.3,6.1,4.3c0-0.5,1.6-1.3,2.7-2.1c1.1-0.8,1.8-0.2,2.6,0.1c0.9,0.3,0.9,0.2,0.6-0.1c-0.3-0.3,0.1-0.4,0.8-0.3
	s0.9,0.9,1.9,0.9c1-0.1,0.1,0.2,0.3,0.5c0.1,0.3-0.2,0.2-0.8,0.7c-0.7,0.5,0,0.5,1.2,1.4c1.2,0.9,0.8-0.6,0.7-1.3
	c-0.1-0.7,0.9-0.1,0.9-0.1c0.8,0.5,0.6,0,1.2,0.2c0.5,0.2,2,1.4,2,1.4c-1.9,1-0.7,1.1-0.4,1.4c0.3,0.2-0.6,0.7-0.6,0.7
	c-0.4-0.4-0.5,0-0.7,0.2c-0.2,0.1,0,0.5,0,0.5c-1.3,0.2-1,1.6-1,1.9c0,0.3-0.8,0.8-1,1.3c-0.2,0.5,0.6,1.5,0.2,1.5s-0.8-1.5-3-0.9
	c-0.7,0.2-2.1,0.9-1.3,2.5c0.8,1.5,2.1-0.4,2.5-0.2c0.4,0.2-0.1,1.2,0,1.2c0.1,0,1.2,0,1.3,1.4c0.1,1.3,1.7,1.2,2.1,1.3
	c0.4,0,1.6-1,1.7-1c0.2,0,0.9-0.6,2.4,0.2c1.5,0.9,2.3,0.7,2.8,1.1c0.5,0.4,0.2,1.1,0.6,1.3c0.5,0.2,2.4-0.1,2.9,0.7
	c0.5,0.8-2,4.8-2.8,5.2c-0.8,0.4-1.1,1.4-1.9,2.1c-0.8,0.6-1.9,1.4-2.9,2c-0.9,0.5-1.1,1.5-1.5,1.8C26.7,30.1,32,23.7,32,16
	C32,7.2,24.9,0,16,0L16,0z M19.8,15c-0.2,0.1-0.7,0.5-1.8-0.2c-1.1-0.7-1.9-0.5-2-0.6c0,0-0.1-0.3,0.4-0.3c1-0.1,2.3,0.9,2.5,0.9
	c0.3,0,0.4-0.3,0.9-0.1C20.4,14.9,20,15,19.8,15L19.8,15z M14.5,1.6c-0.1-0.1,0.1-0.2,0.2-0.3c0.1-0.1,0-0.2,0.1-0.3
	C15.1,0.7,16.3,0.4,16,1C15.8,1.7,14.7,1.7,14.5,1.6L14.5,1.6z M17.3,3.6c-0.4,0-1.3-0.1-1.1-0.3c0.7-0.7-0.3-0.8-0.8-0.9
	c-0.6,0-0.8-0.4-0.5-0.4c0.3,0,1.4,0,1.6,0.2c0.2,0.2,1.2,0.6,1.3,0.9C17.8,3.4,17.7,3.7,17.3,3.6z M20.7,3.5
	c-0.3,0.3-1.9-0.9-2.2-1.2c-1.3-1.1-2-0.8-2.3-0.9C16,1.3,16.1,1,16.5,0.6s1.6,0.1,2.3,0.2c0.7,0.1,1.5,0.6,1.5,1.2
	C20.3,2.7,21.1,3.3,20.7,3.5L20.7,3.5L20.7,3.5z"/>
</svg>
