<?xml version="1.0" encoding="utf-8"?>
<!-- Generator: Adobe Illustrator 16.0.0, SVG Export Plug-In . SVG Version: 6.00 Build 0)  -->
<!DOCTYPE svg PUBLIC "-//W3C//DTD SVG 1.1//EN" "http://www.w3.org/Graphics/SVG/1.1/DTD/svg11.dtd">
<svg version="1.1" id="Layer_1" xmlns="http://www.w3.org/2000/svg" xmlns:xlink="http://www.w3.org/1999/xlink" x="0px" y="0px"
	 width="32px" height="32px" viewBox="0 0 32 32" enable-background="new 0 0 32 32" xml:space="preserve">
<path fill="#5FCCB7" d="M16.031,0.02C7.189,0.02,0.02,7.189,0.02,16.031c0,8.843,7.169,16.011,16.011,16.011
	c1.082,0,2.14-0.108,3.161-0.313c-0.412-0.195-0.456-1.673-0.049-2.517c0.454-0.938,1.876-3.314,0.468-4.111
	c-1.404-0.798-1.016-1.157-1.876-2.08c-0.858-0.923-0.507-1.061-0.562-1.298c-0.188-0.812,0.829-2.032,0.876-2.158
	c0.048-0.124,0.048-0.595,0.03-0.734c-0.016-0.142-0.64-0.518-0.797-0.531c-0.158-0.015-0.236,0.249-0.452,0.266
	c-0.222,0.015-1.176-0.58-1.378-0.734c-0.203-0.156-0.297-0.531-0.58-0.813c-0.282-0.28-0.312-0.062-0.751-0.234
	c-0.438-0.174-1.844-0.69-2.923-1.128c-1.078-0.436-1.172-1.05-1.189-1.484c-0.016-0.434-0.656-1.063-0.958-1.517
	c-0.3-0.454-0.356-1.079-0.466-0.938c-0.109,0.141,0.563,1.782,0.454,1.829c-0.108,0.047-0.344-0.454-0.655-0.86
	c-0.313-0.407,0.328-0.188-0.673-2.158s0.312-2.974,0.375-4.003s0.845,0.375,0.438-0.282C8.116,5.584,8.555,4.21,8.242,3.709
	c-0.312-0.5-2.095,0.563-2.095,0.563c0.047-0.484,1.564-1.313,2.659-2.08c1.093-0.766,1.762-0.172,2.642,0.11
	c0.879,0.281,0.938,0.188,0.64-0.094c-0.297-0.281,0.126-0.421,0.813-0.312c0.687,0.109,0.875,0.938,1.922,0.86
	c1.048-0.077,0.109,0.203,0.251,0.47c0.141,0.266-0.156,0.235-0.845,0.704c-0.688,0.469,0.016,0.47,1.235,1.361
	c1.22,0.891,0.844-0.595,0.721-1.252c-0.127-0.658,0.891-0.14,0.891-0.14c0.753,0.5,0.612,0.027,1.158,0.2
	c0.547,0.172,2.031,1.426,2.031,1.426c-1.861,1.017-0.688,1.126-0.373,1.361c0.311,0.234-0.641,0.688-0.641,0.688
	c-0.392-0.391-0.454,0.015-0.705,0.156c-0.248,0.14-0.015,0.5-0.015,0.5c-1.296,0.203-1.002,1.564-0.985,1.891
	c0.016,0.329-0.829,0.829-1.047,1.299c-0.219,0.47,0.562,1.485,0.156,1.548c-0.407,0.062-0.813-1.532-3.003-0.938
	c-0.659,0.178-2.126,0.938-1.344,2.486c0.781,1.548,2.08-0.438,2.517-0.219c0.438,0.219-0.125,1.203-0.03,1.22
	c0.095,0.015,1.235,0.043,1.298,1.376c0.062,1.333,1.737,1.22,2.095,1.252c0.358,0.03,1.564-0.985,1.735-1.032
	c0.173-0.047,0.862-0.626,2.363,0.234c1.501,0.861,2.265,0.735,2.782,1.095c0.516,0.359,0.157,1.08,0.641,1.313
	c0.484,0.232,2.421-0.079,2.908,0.717c0.485,0.798-2.001,4.802-2.781,5.24c-0.784,0.437-1.143,1.438-1.923,2.08
	c-0.783,0.641-1.877,1.435-2.909,2.047c-0.915,0.544-1.079,1.518-1.485,1.824c7.163-1.593,12.522-7.984,12.522-15.629
	c0-8.842-7.169-16.011-16.012-16.011L16.031,0.02z M19.785,15.046c-0.22,0.062-0.674,0.47-1.783-0.188
	c-1.11-0.658-1.876-0.531-1.971-0.64c0,0-0.094-0.267,0.391-0.312c0.996-0.097,2.252,0.921,2.534,0.937
	c0.278,0.017,0.42-0.281,0.92-0.12C20.377,14.885,20.003,14.985,19.785,15.046L19.785,15.046z M14.547,1.614
	c-0.11-0.079,0.09-0.171,0.208-0.328c0.068-0.092,0.017-0.243,0.104-0.328c0.235-0.235,1.392-0.563,1.166,0.078
	C15.798,1.679,14.718,1.739,14.547,1.614L14.547,1.614z M17.346,3.648c-0.392-0.016-1.312-0.114-1.143-0.282
	c0.661-0.656-0.251-0.844-0.813-0.891c-0.561-0.046-0.797-0.361-0.516-0.392c0.282-0.03,1.408,0.017,1.596,0.172
	c0.187,0.156,1.204,0.563,1.266,0.86C17.799,3.415,17.735,3.664,17.346,3.648z M20.737,3.539c-0.312,0.251-1.887-0.898-2.19-1.157
	c-1.312-1.126-2.017-0.751-2.291-0.938C15.98,1.256,16.079,1.006,16.5,0.631c0.421-0.375,1.611,0.125,2.3,0.203
	c0.688,0.077,1.484,0.609,1.501,1.242c0.015,0.633,0.75,1.213,0.437,1.464V3.539z"/>
</svg>
