<?xml version="1.0" encoding="utf-8"?>
<!-- Generator: Adobe Illustrator 16.0.0, SVG Export Plug-In . SVG Version: 6.00 Build 0)  -->
<!DOCTYPE svg PUBLIC "-//W3C//DTD SVG 1.1//EN" "http://www.w3.org/Graphics/SVG/1.1/DTD/svg11.dtd">
<svg version="1.1" id="Layer_1" xmlns="http://www.w3.org/2000/svg" xmlns:xlink="http://www.w3.org/1999/xlink" x="0px" y="0px"
	 width="27.2px" height="29px" viewBox="17.1 0 27.2 29" style="enable-background:new 17.1 0 27.2 29;" xml:space="preserve">
<style type="text/css">
<![CDATA[
	.st0{fill:#EEF8F6;}
]]>
</style>
<path class="st0" d="M36.4,25.1c-1.8-1-2.5-3-2.7-4.6c-0.3-2.4-0.2-3.9-0.2-5.5c0-1.9,0.4-3.3,1.5-4.1c1.6-1.1,3.7-1,3.7-1
	s0-5.3,0-6.7c0-1.2-1.7-1.3-2-1.3c-2-0.2-6-0.2-6-0.2s-4,0-6,0.2c-0.3,0-2,0.1-2,1.3c0,1.3,0,6.7,0,6.7s2.1-0.1,3.7,1
	c1.2,0.8,1.6,2.2,1.5,4.1c0,1.6,0,3.1-0.2,5.5c-0.2,1.6-0.9,3.6-2.7,4.6c-3.1,1.8-7.9,1.7-7.9,1.7V29h13.6h13.6v-2.2
	C44.3,26.8,39.5,26.9,36.4,25.1z"/>
</svg>
