<?xml version="1.0" encoding="utf-8"?>
<!-- Generator: Adobe Illustrator 16.0.0, SVG Export Plug-In . SVG Version: 6.00 Build 0)  -->
<!DOCTYPE svg PUBLIC "-//W3C//DTD SVG 1.1//EN" "http://www.w3.org/Graphics/SVG/1.1/DTD/svg11.dtd">
<svg version="1.1" id="Layer_1" xmlns="http://www.w3.org/2000/svg" xmlns:xlink="http://www.w3.org/1999/xlink" x="0px" y="0px"
	 width="32px" height="32px" viewBox="0 0 32 32" style="enable-background:new 0 0 32 32;" xml:space="preserve">
<style type="text/css">
<![CDATA[
	.st0{fill:#ECFFFB;}
]]>
</style>
<path class="st0" d="M9,14.5c0.5,0.5,2.6,2.7,2.6,2.7l1.1-1.2l-1.8-1.8l3.4-3.6c0,0-1.5-1.5-0.9-0.9c0.6-2.4,0.1-5-1.7-6.9
	C9.9,1,7.3,0.4,5,1l3.9,4l-1,3.9l-3.8,1L0.2,6c-0.6,2.4,0,5,1.8,6.8C3.9,14.8,6.6,15.3,9,14.5L9,14.5z M21.8,18.4L17.2,23l7.7,8
	c0.6,0.7,1.5,1,2.3,1c0.8,0,1.6-0.3,2.3-1c1.3-1.3,1.3-3.4,0-4.7L21.8,18.4L21.8,18.4z M32,5.1L27.1,0L12.7,14.9l1.8,1.8l-8.6,8.9
	l-2,1.1L1,31.3L1.7,32l4.4-2.9l1-2l8.6-8.9l1.8,1.8L32,5.1L32,5.1z"/>
</svg>
