<?xml version="1.0" encoding="utf-8"?>
<!-- Generator: Adobe Illustrator 16.0.0, SVG Export Plug-In . SVG Version: 6.00 Build 0)  -->
<!DOCTYPE svg PUBLIC "-//W3C//DTD SVG 1.1//EN" "http://www.w3.org/Graphics/SVG/1.1/DTD/svg11.dtd">
<svg version="1.1" id="Layer_1" xmlns="http://www.w3.org/2000/svg" xmlns:xlink="http://www.w3.org/1999/xlink" x="0px" y="0px"
	 width="20px" height="20px" viewBox="0 0 20 20" enable-background="new 0 0 20 20" xml:space="preserve">
<path fill="#5FCCB7" d="M15.213,6.639c-0.275,0-0.546,0.025-0.809,0.068C13.748,4.562,11.716,3,9.309,3
	c-2.939,0-5.32,2.328-5.32,5.199c0,0.256,0.02,0.508,0.057,0.756C3.905,8.938,3.763,8.928,3.617,8.928C1.619,8.928,0,10.51,0,12.463
	S1.619,16,3.617,16H8v-4H5.5L10,7l4.5,5H12v4h3.213C17.855,16,20,13.904,20,11.32C20,8.734,17.855,6.639,15.213,6.639z"/>
</svg>
