<?xml version="1.0" encoding="utf-8"?>
<!-- Generator: Adobe Illustrator 16.0.0, SVG Export Plug-In . SVG Version: 6.00 Build 0)  -->
<!DOCTYPE svg PUBLIC "-//W3C//DTD SVG 1.1//EN" "http://www.w3.org/Graphics/SVG/1.1/DTD/svg11.dtd">
<svg version="1.1" id="Layer_1" xmlns="http://www.w3.org/2000/svg" xmlns:xlink="http://www.w3.org/1999/xlink" x="0px" y="0px"
	 width="20px" height="20px" viewBox="0 0 20 20" style="enable-background:new 0 0 20 20;" xml:space="preserve">
<style type="text/css">
<![CDATA[
	.st0{fill:#ECFFFB;}
]]>
</style>
<path class="st0" d="M15.2,6.6c-0.3,0-0.5,0-0.8,0.1C13.7,4.6,11.7,3,9.3,3C6.4,3,4,5.3,4,8.2C4,8.5,4,8.7,4,9c-0.1,0-0.3,0-0.4,0
	c-2,0-3.6,1.6-3.6,3.5S1.6,16,3.6,16H8v-4H5.5L10,7l4.5,5H12v4h3.2c2.6,0,4.8-2.1,4.8-4.7C20,8.7,17.9,6.6,15.2,6.6z"/>
</svg>
