<?xml version="1.0" encoding="utf-8"?>
<!-- Generator: Adobe Illustrator 16.0.0, SVG Export Plug-In . SVG Version: 6.00 Build 0)  -->
<!DOCTYPE svg PUBLIC "-//W3C//DTD SVG 1.1//EN" "http://www.w3.org/Graphics/SVG/1.1/DTD/svg11.dtd">
<svg version="1.1" id="Layer_1" xmlns="http://www.w3.org/2000/svg" xmlns:xlink="http://www.w3.org/1999/xlink" x="0px" y="0px"
	 width="36px" height="32px" viewBox="0 0 36 32" style="enable-background:new 0 0 36 32;" xml:space="preserve">
<style type="text/css">
<![CDATA[
	.st0{fill:#ECFFFB;}
]]>
</style>
<path class="st0" d="M24,24.1v-1.6c2.2-1.2,4-4.3,4-7.4c0-5,0-9-6-9s-6,4-6,9c0,3.1,1.8,6.2,4,7.4v1.6C13.2,24.6,8,28,8,32h28
	C36,28,30.8,24.6,24,24.1z"/>
<path class="st0" d="M10.2,24.9c1.7-1.1,3.9-2,6.2-2.5c-0.5-0.6-0.9-1.2-1.3-1.8c-1-1.7-1.5-3.6-1.5-5.5c0-2.7,0-5.2,1-7.3
	c0.9-2,2.6-3.3,5-3.7c-0.5-2.4-1.9-4-5.7-4C8,0,8,4,8,9c0,3.1,1.8,6.2,4,7.4v1.6C5.2,18.6,0,22,0,26h8.7
	C9.2,25.6,9.7,25.2,10.2,24.9L10.2,24.9z"/>
</svg>
